<svg width="252" height="180" viewBox="0 0 252 180" fill="none" xmlns="http://www.w3.org/2000/svg">
<g clip-path="url(#clip0_13820_34731)">
<path d="M50.8178 122C78.6076 122 101.136 99.4719 101.136 71.6821C101.136 43.8923 78.6076 21.3643 50.8178 21.3643C23.0281 21.3643 0.5 43.8923 0.5 71.6821C0.5 99.4719 23.0281 122 50.8178 122Z" fill="#FFE8AA"/>
<path d="M75.9681 86.011H80.3738C82.5346 85.3291 75.3039 74.9768 76.3843 74.3126C77.4647 73.6485 78.793 67.33 78.793 67.33L61.5068 57.6064L50.1184 67.8303C33.8284 67.1661 42.9719 80.795 42.9719 80.795L24.2422 114.416L58.642 121.394L56.9328 104.896L57.1675 98.0635L69.4016 101.57C69.4016 101.57 75.2198 101.902 75.2198 94.9198C75.2198 87.9371 75.9681 86.0065 75.9681 86.0065V86.011Z" fill="url(#paint0_linear_13820_34731)"/>
<mask id="mask0_13820_34731" style="mask-type:luminance" maskUnits="userSpaceOnUse" x="0" y="21" width="102" height="101">
<path d="M50.8178 122C78.6076 122 101.136 99.4719 101.136 71.6821C101.136 43.8923 78.6076 21.3643 50.8178 21.3643C23.0281 21.3643 0.5 43.8923 0.5 71.6821C0.5 99.4719 23.0281 122 50.8178 122Z" fill="white"/>
</mask>
<g mask="url(#mask0_13820_34731)">
<path d="M58.6415 121.392L57.7648 105.31L32.0125 100.471L24.2417 114.414L31.4989 124.013L45.8805 125.842L58.6415 121.392Z" fill="#1C1400"/>
</g>
<path d="M39.7393 86.4799H33.7617L27.4432 61.8479C27.4432 61.8479 25.0345 50.796 37.0826 47.2184C37.0826 47.2184 45.3095 41.3161 47.9707 41.3161C50.6318 41.3161 55.5334 39.7353 65.589 46.8021C75.6446 53.869 85.036 55.6932 78.7219 67.3296L62.5161 63.8227C62.5161 63.8227 57.1982 63.2604 57.03 67.4978C56.8617 71.7352 58.0263 78.3017 58.0263 78.3017L60.1029 83.1236L75.8925 86.015C75.8925 86.015 75.6092 95.4418 75.2284 97.1111C74.6926 99.48 71.8322 103.717 64.6281 100.233L57.247 98.2004L50.0429 67.8343C50.0429 67.8343 34.8333 65.7577 42.8964 80.799L39.7305 86.4843L39.7393 86.4799Z" fill="#040C18"/>
<path d="M75.8396 89.1673C75.8396 89.1673 69.1625 88.2596 69.0385 88.0737C68.9145 87.8877 68.3079 93.7457 75.5474 93.9937L75.8396 89.1673Z" fill="white"/>
<ellipse cx="68.7001" cy="73.3212" rx="1.705" ry="1.705" fill="#081835"/>
<path d="M80.7793 41.1646H141.286C141.286 41.1646 158.572 35.4128 157.744 19.6232C156.916 3.83357 140.953 0.00349641 140.953 0.00349641H109.538C109.538 0.00349641 89.3427 -0.758091 89.3427 20.1988C89.3427 41.1557 80.7837 41.1602 80.7837 41.1602L80.7793 41.1646Z" fill="#FFBA00"/>
<path d="M110.35 24.1572C111.891 24.1572 113.139 22.9083 113.139 21.3677C113.139 19.827 111.891 18.5781 110.35 18.5781C108.809 18.5781 107.56 19.827 107.56 21.3677C107.56 22.9083 108.809 24.1572 110.35 24.1572Z" fill="#1C1400"/>
<path d="M122.678 24.1572C124.218 24.1572 125.467 22.9083 125.467 21.3677C125.467 19.827 124.218 18.5781 122.678 18.5781C121.137 18.5781 119.888 19.827 119.888 21.3677C119.888 22.9083 121.137 24.1572 122.678 24.1572Z" fill="#1C1400"/>
<path d="M135 24.1572C136.541 24.1572 137.79 22.9083 137.79 21.3677C137.79 19.827 136.541 18.5781 135 18.5781C133.459 18.5781 132.211 19.827 132.211 21.3677C132.211 22.9083 133.459 24.1572 135 24.1572Z" fill="#1C1400"/>
<path d="M167.142 180.139H228.763L251.5 158.449V96.8633H167.142V180.139Z" fill="#FFE8AA"/>
<path d="M192.17 180.135L193.671 159.933C193.671 159.933 180.081 161.266 180.081 155.283V144.573C180.081 144.573 175.612 141.714 177.229 140.114C178.845 138.514 183.237 133.94 183.237 133.94V128.108L206.14 116.33L224.463 127.003V166.797L219.506 180.139H192.17V180.135Z" fill="url(#paint1_linear_13820_34731)"/>
<path d="M197.778 132.644L199.668 126.832L200.207 141.404L206.017 141.931C206.017 141.931 207.303 138.383 210.405 138.383C213.508 138.383 217.819 140.648 217.819 143.592V147.293C217.819 147.293 215.474 152.051 212.903 152.051C210.333 152.051 212.299 159.375 212.299 159.375L219.181 180.138L226.969 167.38C226.969 167.38 233.625 151.978 234.229 148.125C234.834 144.272 235.817 136.875 234.91 132.724C234.004 128.573 229.39 116.491 215.699 113.546C202.008 110.602 189.76 111.809 185.296 117.697C180.831 123.586 181.21 127.889 181.21 127.889L197.774 132.648L197.778 132.644Z" fill="#040C18"/>
<path d="M210.403 157.429C212.195 157.429 213.647 155.734 213.647 153.644C213.647 151.553 212.195 149.858 210.403 149.858C208.611 149.858 207.158 151.553 207.158 153.644C207.158 155.734 208.611 157.429 210.403 157.429Z" fill="white"/>
<path d="M180.121 152.019C186.74 152.019 186.61 147.588 186.61 147.588L180.121 146.611V152.019Z" fill="white"/>
<path d="M188.773 136.879C189.37 136.879 189.854 136.153 189.854 135.257C189.854 134.361 189.37 133.635 188.773 133.635C188.175 133.635 187.691 134.361 187.691 135.257C187.691 136.153 188.175 136.879 188.773 136.879Z" fill="#081835"/>
<path d="M181.593 115.626H126.282C126.282 115.626 110.48 110.368 111.237 95.9344C111.998 81.5004 126.586 78.0032 126.586 78.0032H155.304C155.304 78.0032 173.765 77.307 173.765 96.4646C173.765 115.626 181.589 115.626 181.589 115.626H181.593Z" fill="#FFBA00"/>
<path d="M154.559 100.079C155.967 100.079 157.109 98.9369 157.109 97.5285C157.109 96.1202 155.967 94.9785 154.559 94.9785C153.151 94.9785 152.009 96.1202 152.009 97.5285C152.009 98.9369 153.151 100.079 154.559 100.079Z" fill="#1C1400"/>
<path d="M143.29 100.079C144.698 100.079 145.84 98.9369 145.84 97.5285C145.84 96.1202 144.698 94.9785 143.29 94.9785C141.882 94.9785 140.74 96.1202 140.74 97.5285C140.74 98.9369 141.882 100.079 143.29 100.079Z" fill="#1C1400"/>
<path d="M132.026 100.079C133.434 100.079 134.576 98.9369 134.576 97.5285C134.576 96.1202 133.434 94.9785 132.026 94.9785C130.618 94.9785 129.476 96.1202 129.476 97.5285C129.476 98.9369 130.618 100.079 132.026 100.079Z" fill="#1C1400"/>
<path d="M77.695 162.623C82.7733 162.623 86.89 158.507 86.89 153.43C86.89 148.352 82.7733 144.236 77.695 144.236C72.6167 144.236 68.5 148.352 68.5 153.43C68.5 158.507 72.6167 162.623 77.695 162.623Z" fill="#C69000"/>
<path d="M103.23 141.172C105.486 141.172 107.315 139.343 107.315 137.086C107.315 134.829 105.486 133 103.23 133C100.974 133 99.1453 134.829 99.1453 137.086C99.1453 139.343 100.974 141.172 103.23 141.172Z" fill="#C69000"/>
<path d="M200.258 50.4032L197.045 41.8397L188.481 38.627L197.045 35.4143L200.258 26.8508L203.47 35.4143L212.034 38.627L203.47 41.8397L200.258 50.4032ZM192.897 29.7948L191.452 25.8431L187.5 24.3974L191.452 22.9518L192.897 19L194.343 22.9518L198.295 24.3974L194.343 25.8431L192.897 29.7948ZM212.034 34.7016L210.126 29.7402L205.164 27.8321L210.126 25.924L212.034 20.9627L213.942 25.924L218.903 27.8321L213.942 29.7402L212.034 34.7016Z" fill="#C69000"/>
</g>
<defs>
<linearGradient id="paint0_linear_13820_34731" x1="81.5912" y1="60.4034" x2="68.8731" y2="132.263" gradientUnits="userSpaceOnUse">
<stop stop-color="#FECBA6"/>
<stop offset="1" stop-color="#F5B089"/>
</linearGradient>
<linearGradient id="paint1_linear_13820_34731" x1="225.146" y1="119.128" x2="210.212" y2="190.122" gradientUnits="userSpaceOnUse">
<stop stop-color="#FECBA6"/>
<stop offset="1" stop-color="#F5B089"/>
</linearGradient>
<clipPath id="clip0_13820_34731">
<rect width="250.225" height="180" fill="white" transform="translate(0.887695)"/>
</clipPath>
</defs>
</svg>
