<?xml version="1.0" encoding="UTF-8"?>
<svg version="1.1" xmlns="http://www.w3.org/2000/svg" width="144" height="104">
<path d="M0 0 C47.52 0 95.04 0 144 0 C144 34.32 144 68.64 144 104 C96.48 104 48.96 104 0 104 C0 69.68 0 35.36 0 0 Z " fill="#FCFCFA" transform="translate(0,0)"/>
<path d="M0 0 C7.26 0 14.52 0 22 0 C22 34.32 22 68.64 22 104 C-3.430625 104.061875 -3.430625 104.061875 -29.375 104.125 C-34.73411621 104.14320801 -40.09323242 104.16141602 -45.61474609 104.18017578 C-52.14379883 104.18920898 -52.14379883 104.18920898 -55.19741821 104.19088745 C-57.33650544 104.19396466 -59.47558913 104.20101115 -61.61465454 104.21115112 C-64.84912166 104.22572119 -68.08337624 104.22781434 -71.31787109 104.22705078 C-72.27561621 104.234247 -73.23336132 104.24144321 -74.22012901 104.2488575 C-75.08772661 104.2461025 -75.95532421 104.24334751 -76.84921265 104.24050903 C-77.9857834 104.24327441 -77.9857834 104.24327441 -79.14531517 104.24609566 C-81 104 -81 104 -83 102 C-83.1875 99.4375 -83.1875 99.4375 -83 97 C-82.505 96.505 -82.505 96.505 -82 96 C-85.96 95.505 -85.96 95.505 -90 95 C-90.625 92.125 -90.625 92.125 -91 89 C-89 87 -89 87 -86.5196228 86.75949097 C-85.47593536 86.76393219 -84.43224792 86.76837341 -83.35693359 86.77294922 C-81.58532364 86.77317581 -81.58532364 86.77317581 -79.77792358 86.77340698 C-78.49769318 86.78372955 -77.21746277 86.79405212 -75.8984375 86.8046875 C-73.93833237 86.80893234 -73.93833237 86.80893234 -71.93862915 86.81326294 C-68.46317919 86.82090224 -64.98789617 86.8405531 -61.51251221 86.8626709 C-57.96669778 86.88312304 -54.4208564 86.89226329 -50.875 86.90234375 C-43.91659805 86.92379884 -36.95830704 86.95793827 -30 87 C-29.79480261 85.54823787 -29.6017934 84.09474891 -29.4140625 82.640625 C-29.30529785 81.83141602 -29.1965332 81.02220703 -29.08447266 80.18847656 C-28.79271073 77.87231035 -28.79271073 77.87231035 -30.375 75.75 C-30.91125 75.1725 -31.4475 74.595 -32 74 C-32.8534335 70.63819545 -33.16790734 67.37587205 -33.31640625 63.91796875 C-33.35830078 62.98662109 -33.40019531 62.05527344 -33.44335938 61.09570312 C-33.48267578 60.13599609 -33.52199219 59.17628906 -33.5625 58.1875 C-33.60568359 57.20845703 -33.64886719 56.22941406 -33.69335938 55.22070312 C-33.7990226 52.81392973 -33.90112327 50.40706017 -34 48 C-34.70125 49.11117187 -35.4025 50.22234375 -36.125 51.3671875 C-47.9334321 69.9334321 -47.9334321 69.9334321 -54 76 C-59.79588336 76.46740995 -59.79588336 76.46740995 -62 76 C-65.42668953 72.83567881 -65.73402301 68.98914921 -66.1875 64.5625 C-66.26355469 63.8494873 -66.33960937 63.13647461 -66.41796875 62.40185547 C-66.6312821 60.26919808 -66.81774443 58.13550432 -67 56 C-67.10957031 54.90816406 -67.21914062 53.81632812 -67.33203125 52.69140625 C-67.87592253 42.76222817 -64.45028367 34.14941296 -61 25 C-57.125 26.875 -57.125 26.875 -56 28 C-55.85364765 30.02422645 -55.77254982 32.05323424 -55.71875 34.08203125 C-55.66267578 35.94504883 -55.66267578 35.94504883 -55.60546875 37.84570312 C-55.55326172 39.80926758 -55.55326172 39.80926758 -55.5 41.8125 C-55.43108171 44.38162079 -55.35832996 46.95064238 -55.28125 49.51953125 C-55.25095703 50.66526611 -55.22066406 51.81100098 -55.18945312 52.99145508 C-55.03189203 55.49354957 -54.72217009 57.61237995 -54 60 C-53.34 58.68 -52.68 57.36 -52 56 C-51.34 56 -50.68 56 -50 56 C-49.87326904 55.41299316 -49.74653809 54.82598633 -49.6159668 54.22119141 C-48.62484613 50.64718593 -46.65182178 47.56965079 -44.8125 44.375 C-44.40829834 43.66657959 -44.00409668 42.95815918 -43.58764648 42.22827148 C-42.39757197 40.14877535 -41.19974927 38.07392555 -40 36 C-39.07960938 34.39705078 -39.07960938 34.39705078 -38.140625 32.76171875 C-34.26469836 26.13234918 -34.26469836 26.13234918 -32 25 C-25.52941176 24.64705882 -25.52941176 24.64705882 -22 27 C-20.82133109 30.12875185 -20.8071154 33.32318652 -20.68359375 36.640625 C-20.64169922 37.71054687 -20.59980469 38.78046875 -20.55664062 39.8828125 C-20.51732422 40.99398437 -20.47800781 42.10515625 -20.4375 43.25 C-20.39431641 44.37664063 -20.35113281 45.50328125 -20.30664062 46.6640625 C-20.20067985 49.44258954 -20.09860858 52.22120391 -20 55 C-17.66512672 48.65633116 -15.40394149 42.30275367 -13.3125 35.875 C-10.72344178 28.0196504 -7.97912049 20.22298855 -5.1875 12.4375 C-4.79022705 11.3242334 -4.3929541 10.2109668 -3.98364258 9.06396484 C-3.61134521 8.03094238 -3.23904785 6.99791992 -2.85546875 5.93359375 C-2.52184326 5.00603271 -2.18821777 4.07847168 -1.84448242 3.12280273 C-1 1 -1 1 0 0 Z " fill="#FCAD23" transform="translate(122,0)"/>
<path d="M0 0 C40.26 0 80.52 0 122 0 C118.37 10.56 114.74 21.12 111 32 C109.68 35.96 108.36 39.92 107 44 C106.11537097 46.26278794 105.20705187 48.51687898 104.25 50.75 C103.82203125 51.75546875 103.3940625 52.7609375 102.953125 53.796875 C102.48132813 54.88742188 102.48132813 54.88742188 102 56 C101.67 56 101.34 56 101 56 C100.97494385 55.26362305 100.9498877 54.52724609 100.92407227 53.76855469 C100.80795727 50.42886622 100.68530082 47.08944903 100.5625 43.75 C100.52318359 42.59113281 100.48386719 41.43226562 100.44335938 40.23828125 C100.40146484 39.12324219 100.35957031 38.00820313 100.31640625 36.859375 C100.27974854 35.83295898 100.24309082 34.80654297 100.20532227 33.74902344 C100.02547669 31.34110282 99.81048555 29.27158273 99 27 C96.59454362 25.79727181 95.05003047 25.89928528 92.375 25.9375 C91.55773437 25.94652344 90.74046875 25.95554687 89.8984375 25.96484375 C89.27195312 25.97644531 88.64546875 25.98804687 88 26 C87.63841797 26.99773438 87.63841797 26.99773438 87.26953125 28.015625 C85.67548969 31.76284884 83.70947643 35.21994712 81.6875 38.75 C80.88003974 40.17177927 80.07274711 41.59365375 79.265625 43.015625 C78.87697266 43.69818359 78.48832031 44.38074219 78.08789062 45.08398438 C76.03072119 48.70711402 74.01562231 52.35364808 72 56 C71.34 56 70.68 56 70 56 C69.34 57.65 68.68 59.3 68 61 C67.67 61 67.34 61 67 61 C66.09226467 57.1143671 65.86379804 53.47802125 65.82421875 49.4921875 C65.78844727 47.64173828 65.78844727 47.64173828 65.75195312 45.75390625 C65.70885738 43.16032603 65.67767659 40.5665214 65.65820312 37.97265625 C65.63048828 36.74160156 65.60277344 35.51054688 65.57421875 34.2421875 C65.55963623 33.1166748 65.54505371 31.99116211 65.5300293 30.83154297 C65.2869126 27.87322773 65.2869126 27.87322773 62.96411133 26.29736328 C62.31595459 25.8692334 61.66779785 25.44110352 61 25 C61 24.01 61 23.02 61 22 C55.94997867 21.70293992 52.96780272 21.76311857 49 25 C47.46308784 27.74538236 46.47010183 30.63586869 45.44921875 33.60546875 C44.99371391 34.86427605 44.99371391 34.86427605 44.52900696 36.14851379 C43.56554486 38.82266443 42.62632959 41.50461484 41.6875 44.1875 C41.03738915 46.00512385 40.38571403 47.82218902 39.73242188 49.63867188 C38.13674345 54.08617574 36.56275193 58.54082547 35 63 C32.75453652 60.19729464 31.20512374 57.511608 29.80078125 54.2109375 C29.40020508 53.27749512 28.99962891 52.34405273 28.58691406 51.38232422 C28.16635742 50.38990723 27.74580078 49.39749023 27.3125 48.375 C26.41805359 46.30204672 25.52352125 44.22913052 24.62890625 42.15625 C22.98915227 38.33194554 21.37298419 34.49913849 19.77734375 30.65625 C19.10168021 29.06245009 18.42590583 27.46869717 17.75 25.875 C17.45778564 25.14845215 17.16557129 24.4219043 16.86450195 23.67333984 C14.74634635 18.72490531 12.44001845 16.0846444 8 13 C3.89522083 11.81171883 3.89522083 11.81171883 0 13 C0 8.71 0 4.42 0 0 Z " fill="#FDFDFC" transform="translate(0,0)"/>
<path d="M0 0 C0.33 0 0.66 0 1 0 C1 32.34 1 64.68 1 98 C-18.14 98 -37.28 98 -57 98 C-56.67 95.69 -56.34 93.38 -56 91 C-56.33 90.34 -56.66 89.68 -57 89 C-56.31292969 88.95101562 -55.62585938 88.90203125 -54.91796875 88.8515625 C-53.56638672 88.73941406 -53.56638672 88.73941406 -52.1875 88.625 C-50.84751953 88.52058594 -50.84751953 88.52058594 -49.48046875 88.4140625 C-46.75601501 88.13354964 -46.75601501 88.13354964 -44 86 C-42.99285885 83.56281937 -42.14907244 81.2111398 -41.36328125 78.703125 C-41.12282074 77.96637039 -40.88236023 77.22961578 -40.63461304 76.47053528 C-40.11937096 74.8888082 -39.60878482 73.30555838 -39.10238647 71.72097778 C-37.77926818 67.58190716 -36.42290101 63.45373273 -35.0703125 59.32421875 C-34.67162209 58.10242165 -34.67162209 58.10242165 -34.26487732 56.85594177 C-32.19858884 50.54358846 -30.00174716 44.28849607 -27.6875 38.0625 C-24.70512532 30.02308866 -21.92318342 21.93315701 -19.2565918 13.78344727 C-17.95114235 9.80109966 -16.62845262 5.8655987 -15 2 C-14.00097656 1.93941406 -13.00195312 1.87882813 -11.97265625 1.81640625 C-10.68230469 1.73261719 -9.39195312 1.64882812 -8.0625 1.5625 C-6.77472656 1.48128906 -5.48695313 1.40007813 -4.16015625 1.31640625 C-1.13976043 1.35080812 -1.13976043 1.35080812 0 0 Z " fill="#FEFEFC" transform="translate(143,6)"/>
<path d="M0 0 C4.67752757 0 7.65049141 1.68904934 11.11157227 4.75683594 C15.32602067 9.76295772 17.57826206 16.15420573 20.125 22.125 C20.7236185 23.49030441 21.32386897 24.85489449 21.92578125 26.21875 C25.38928288 34.10107935 28.71868937 42.04023616 32 50 C33.77541537 47.33687694 34.73980197 45.25627753 35.8046875 42.28125 C36.14113281 41.34796875 36.47757813 40.4146875 36.82421875 39.453125 C37.34435547 37.99132813 37.34435547 37.99132813 37.875 36.5 C38.90371641 33.63680451 39.93243645 30.77361555 40.96313477 27.91113281 C41.67219236 25.9203622 42.36737139 23.92460841 43.05053711 21.92480469 C43.56112671 20.45382324 43.56112671 20.45382324 44.08203125 18.953125 C44.38343018 18.06786133 44.6848291 17.18259766 44.99536133 16.27050781 C46.57233134 12.70651725 48.42297872 11.40275344 52 10 C55.875 10.25 55.875 10.25 59 11 C59.42155487 17.14974167 57.96372842 21.77478764 55.8125 27.5 C55.16563334 29.27827029 54.51980877 31.05691998 53.875 32.8359375 C53.5553125 33.70959961 53.235625 34.58326172 52.90625 35.48339844 C51.63701471 39.00798824 50.47084511 42.56278739 49.3125 46.125 C47.41692554 51.84889151 45.35434702 57.44979236 43 63 C42.47212891 64.27423828 42.47212891 64.27423828 41.93359375 65.57421875 C41.40958984 66.80591797 41.40958984 66.80591797 40.875 68.0625 C40.56304687 68.79597656 40.25109375 69.52945313 39.9296875 70.28515625 C39 72 39 72 37 73 C31.21448468 73.55988858 31.21448468 73.55988858 29 73 C25.2200633 68.97297972 23.18365932 64.48609495 20.98828125 59.5 C20.6182045 58.67506546 20.24812775 57.85013092 19.86683655 57.00019836 C18.67448374 54.33677127 17.49298805 51.66870454 16.3125 49 C15.50052067 47.17586603 14.68818297 45.35189155 13.87548828 43.52807617 C11.91777362 39.12854368 9.97005171 34.72467061 8.02557373 30.3192749 C7.11497813 28.26001631 6.20002171 26.20281163 5.28173828 24.14697266 C3.96952269 21.2064029 2.66877475 18.26121798 1.375 15.3125 C0.83613159 14.1069043 0.83613159 14.1069043 0.28637695 12.87695312 C-1.31100711 9.17748877 -2.64750872 6.05822328 -2 2 C-1.34 1.34 -0.68 0.68 0 0 Z " fill="#2540FB" transform="translate(2,11)"/>
<path d="M0 0 C3.875 1.875 3.875 1.875 5 3 C5.14635235 5.02422645 5.22745018 7.05323424 5.28125 9.08203125 C5.31863281 10.32404297 5.35601562 11.56605469 5.39453125 12.84570312 C5.42933594 14.15474609 5.46414062 15.46378906 5.5 16.8125 C5.56891829 19.38162079 5.64167004 21.95064238 5.71875 24.51953125 C5.74904297 25.66526611 5.77933594 26.81100098 5.81054688 27.99145508 C5.96810797 30.49354957 6.27782991 32.61237995 7 35 C7.66 33.68 8.32 32.36 9 31 C9.66 31 10.32 31 11 31 C11.12673096 30.41299316 11.25346191 29.82598633 11.3840332 29.22119141 C12.37515387 25.64718593 14.34817822 22.56965079 16.1875 19.375 C16.59170166 18.66657959 16.99590332 17.95815918 17.41235352 17.22827148 C18.60242803 15.14877535 19.80025073 13.07392555 21 11 C21.61359375 9.93136719 22.2271875 8.86273438 22.859375 7.76171875 C26.73530164 1.13234918 26.73530164 1.13234918 29 0 C35.47058824 -0.35294118 35.47058824 -0.35294118 39 2 C41.15722969 7.57080726 40.38167968 14.35548034 40.4375 20.25 C40.44825562 21.26178314 40.44825562 21.26178314 40.45922852 22.29400635 C40.52057472 33.234188 39.19866212 42.31439736 34 52 C32.68 51.67 31.36 51.34 30 51 C27.9550996 45.00661307 27.58183841 39.36676239 27.375 33.0625 C27.31699219 31.6074707 27.31699219 31.6074707 27.2578125 30.12304688 C27.16424924 27.74887924 27.07850792 25.37470508 27 23 C26.29875 24.11117187 25.5975 25.22234375 24.875 26.3671875 C13.0665679 44.9334321 13.0665679 44.9334321 7 51 C1.20411664 51.46740995 1.20411664 51.46740995 -1 51 C-4.42668953 47.83567881 -4.73402301 43.98914921 -5.1875 39.5625 C-5.26355469 38.8494873 -5.33960938 38.13647461 -5.41796875 37.40185547 C-5.6312821 35.26919808 -5.81774443 33.13550432 -6 31 C-6.10957031 29.90816406 -6.21914063 28.81632812 -6.33203125 27.69140625 C-6.87592253 17.76222817 -3.45028367 9.14941296 0 0 Z " fill="#FC7708" transform="translate(61,25)"/>
<path d="M0 0 C1.35327393 0.00616333 1.35327393 0.00616333 2.73388672 0.01245117 C3.72904297 0.01438477 4.72419922 0.01631836 5.74951172 0.01831055 C6.79365234 0.03055664 7.83779297 0.04280273 8.91357422 0.05541992 C10.44498047 0.05638672 10.44498047 0.05638672 12.00732422 0.05737305 C17.68891104 0.0902357 23.16939332 0.40071655 28.78857422 1.24291992 C28.78857422 2.56291992 28.78857422 3.88291992 28.78857422 5.24291992 C30.52494141 5.29899414 30.52494141 5.29899414 32.29638672 5.35620117 C33.83547983 5.42189417 35.37454092 5.48834035 36.91357422 5.55541992 C37.67412109 5.57797852 38.43466797 5.60053711 39.21826172 5.6237793 C44.06237521 5.85345709 47.60450964 6.55130205 51.78857422 9.24291992 C52.78857422 11.74291992 52.78857422 11.74291992 52.78857422 14.24291992 C52.12857422 15.23291992 51.46857422 16.22291992 50.78857422 17.24291992 C48.85314941 17.61714172 48.85314941 17.61714172 46.46240234 17.61523438 C45.12091125 17.62457756 45.12091125 17.62457756 43.75231934 17.6341095 C42.78459595 17.62489975 41.81687256 17.61569 40.81982422 17.60620117 C39.33295105 17.60694893 39.33295105 17.60694893 37.81604004 17.60771179 C35.71783445 17.60536866 33.6196262 17.59562615 31.52148438 17.57910156 C28.3016661 17.55551582 25.0826756 17.55853798 21.86279297 17.56518555 C19.82763176 17.55960886 17.79247405 17.55249904 15.75732422 17.54370117 C14.78960083 17.54461258 13.82187744 17.54552399 12.8248291 17.54646301 C11.93050171 17.536931 11.03617432 17.52739899 10.11474609 17.51757812 C9.32579956 17.51297073 8.53685303 17.50836334 7.72399902 17.50361633 C5.78857422 17.24291992 5.78857422 17.24291992 3.78857422 15.24291992 C3.60107422 12.68041992 3.60107422 12.68041992 3.78857422 10.24291992 C4.11857422 9.91291992 4.44857422 9.58291992 4.78857422 9.24291992 C2.14857422 8.91291992 -0.49142578 8.58291992 -3.21142578 8.24291992 C-3.83642578 5.36791992 -3.83642578 5.36791992 -4.21142578 2.24291992 C-2.21142578 0.24291992 -2.21142578 0.24291992 0 0 Z " fill="#FD9815" transform="translate(35.21142578125,86.757080078125)"/>
<path d="M0 0 C0.42155487 6.14974167 -1.03627158 10.77478764 -3.1875 16.5 C-3.83436666 18.27827029 -4.48019123 20.05691998 -5.125 21.8359375 C-5.60453125 23.14643066 -5.60453125 23.14643066 -6.09375 24.48339844 C-7.36298499 28.00798743 -8.52917553 31.56278101 -9.6875 35.125 C-14.56087662 49.84131494 -14.56087662 49.84131494 -18 55 C-19.04518445 45.31337984 -19.10371911 35.72654773 -19 26 C-19.66 25.67 -20.32 25.34 -21 25 C-19.82522665 21.40478071 -18.60453367 17.82682523 -17.375 14.25 C-17.04371094 13.23421875 -16.71242188 12.2184375 -16.37109375 11.171875 C-13.44121968 2.76921729 -13.44121968 2.76921729 -9.96875 0.28125 C-6.23014001 -1.33225536 -3.90687599 -0.93765024 0 0 Z " fill="#64DDF9" transform="translate(61,22)"/>
<path d="M0 0 C0.91644287 0.00523682 1.83288574 0.01047363 2.77709961 0.01586914 C4.26113281 0.02070312 4.26113281 0.02070312 5.77514648 0.02563477 C6.81606445 0.03401367 7.85698242 0.04239258 8.92944336 0.05102539 C10.49662109 0.05779297 10.49662109 0.05779297 12.09545898 0.06469727 C14.68600996 0.07652627 17.27644895 0.0930085 19.86694336 0.11352539 C19.99194336 2.98852539 19.99194336 2.98852539 19.86694336 6.11352539 C17.86694336 8.11352539 17.86694336 8.11352539 14.60913086 8.30883789 C13.33295898 8.28563477 12.05678711 8.26243164 10.74194336 8.23852539 C8.81995117 8.21145508 8.81995117 8.21145508 6.85913086 8.18383789 C5.37799805 8.1490332 5.37799805 8.1490332 3.86694336 8.11352539 C3.73553955 8.84273193 3.60413574 9.57193848 3.46875 10.32324219 C2.9076982 12.92456511 2.16920816 15.26929038 1.23803711 17.75805664 C0.76914063 19.01972656 0.76914063 19.01972656 0.29077148 20.30688477 C-0.0347168 21.17120117 -0.36020508 22.03551758 -0.69555664 22.92602539 C-1.02491211 23.80967773 -1.35426758 24.69333008 -1.69360352 25.60375977 C-2.50340265 27.77496034 -3.31664557 29.94480428 -4.13305664 32.11352539 C-4.79305664 32.11352539 -5.45305664 32.11352539 -6.13305664 32.11352539 C-7.76981921 34.07355349 -7.76981921 34.07355349 -9.13305664 36.11352539 C-9.46305664 35.45352539 -9.79305664 34.79352539 -10.13305664 34.11352539 C-10.79305664 35.43352539 -11.45305664 36.75352539 -12.13305664 38.11352539 C-12.79305664 38.11352539 -13.45305664 38.11352539 -14.13305664 38.11352539 C-13.72990394 30.38643199 -11.51361883 23.75933401 -8.84008789 16.52661133 C-8.12546914 14.59299512 -7.42502121 12.65468116 -6.72680664 10.71508789 C-2.88627027 0.15361287 -2.88627027 0.15361287 0 0 Z " fill="#FB8F14" transform="translate(124.133056640625,-0.113525390625)"/>
<path d="M0 0 C4.75792317 0 7.83947337 1.66070705 11.24609375 4.79296875 C14.96485817 9.472483 17.53762556 15.22919504 19 21 C18.12918236 24.83520723 17.20507974 27.5961902 14 30 C13.34 30 12.68 30 12 30 C12.33 31.65 12.66 33.3 13 35 C10 34 10 34 8.55786133 31.48730469 C8.0708374 30.39321289 7.58381348 29.29912109 7.08203125 28.171875 C6.55029297 26.97949219 6.01855469 25.78710938 5.47070312 24.55859375 C5.1987915 23.9332373 4.92687988 23.30788086 4.64672852 22.66357422 C3.81898171 20.76486791 2.97053269 18.87648294 2.11914062 16.98828125 C-2.55576321 6.38269966 -2.55576321 6.38269966 -2 2 C-1.34 1.34 -0.68 0.68 0 0 Z " fill="#243FFA" transform="translate(2,11)"/>
<path d="M0 0 C1.39647004 2.79294008 0.42087869 4.50993765 -0.49414062 7.36132812 C-0.72294922 8.04646484 -0.95175781 8.73160156 -1.1875 9.4375 C-1.39697266 10.11876953 -1.60644531 10.80003906 -1.82226562 11.50195312 C-2.76945721 14.37163446 -3.71707943 16.67931401 -5.7265625 18.95703125 C-8.95289552 20.4371531 -11.65635202 20.32318441 -15.1875 20.25 C-17.06501953 20.22679687 -17.06501953 20.22679687 -18.98046875 20.203125 C-22 20 -22 20 -23 19 C-25.85528607 18.599617 -28.69736487 18.2481773 -31.5625 17.9375 C-32.36880859 17.84662109 -33.17511719 17.75574219 -34.00585938 17.66210938 C-36.00347377 17.43752551 -38.0016856 17.21826764 -40 17 C-40 15.68 -40 14.36 -40 13 C-42.64 13 -45.28 13 -48 13 C-48 12.67 -48 12.34 -48 12 C-36.12 12 -24.24 12 -12 12 C-11.67 9.69 -11.34 7.38 -11 5 C-10.34 5.99 -9.68 6.98 -9 8 C-8.566875 7.505 -8.13375 7.01 -7.6875 6.5 C-6 5 -6 5 -3 5 C-2.690625 4.360625 -2.38125 3.72125 -2.0625 3.0625 C-1 1 -1 1 0 0 Z " fill="#FCC12A" transform="translate(104,75)"/>
<path d="M0 0 C11.55 0 23.1 0 35 0 C34.34 0.99 33.68 1.98 33 3 C32.83286431 5.62531524 32.83286431 5.62531524 33 8 C33.66 8.33 34.32 8.66 35 9 C23.45 9 11.9 9 0 9 C0.33 6.69 0.66 4.38 1 2 C0.67 1.34 0.34 0.68 0 0 Z " fill="#FCF9F6" transform="translate(46,95)"/>
<path d="M0 0 C0.33 0 0.66 0 1 0 C0.99476318 0.60996826 0.98952637 1.21993652 0.98413086 1.84838867 C0.96326665 4.62808185 0.95030987 7.40775851 0.9375 10.1875 C0.92912109 11.14720703 0.92074219 12.10691406 0.91210938 13.09570312 C0.90888672 14.02705078 0.90566406 14.95839844 0.90234375 15.91796875 C0.89710693 16.77156982 0.89187012 17.6251709 0.88647461 18.50463867 C1.00420171 21.09235627 1.48225729 23.46641037 2 26 C1.765625 28.60546875 1.765625 28.60546875 1.25 31.1875 C1.09015625 32.04730469 0.9303125 32.90710938 0.765625 33.79296875 C0 36 0 36 -3 38 C-5.6875 38.125 -5.6875 38.125 -8 38 C-8.7544632 24.6111799 -8.2061514 14.02441833 -2 2 C-1.34 2 -0.68 2 0 2 C0 1.34 0 0.68 0 0 Z " fill="#3979FD" transform="translate(42,46)"/>
<path d="M0 0 C7.26 0 14.52 0 22 0 C22 1.98 22 3.96 22 6 C19.18086854 8.81913146 16.34379971 8.37905532 12.5625 8.5 C6.99685789 8.62020437 6.99685789 8.62020437 2 11 C1.67 11.99 1.34 12.98 1 14 C-1.0625 14.6875 -1.0625 14.6875 -3 15 C-3.08243693 13.62605116 -3.1398309 12.25059402 -3.1875 10.875 C-3.22230469 10.10929688 -3.25710937 9.34359375 -3.29296875 8.5546875 C-3 6 -3 6 0 0 Z " fill="#FC870F" transform="translate(122,0)"/>
<path d="M0 0 C0.66 0 1.32 0 2 0 C2.10017029 4.47992337 2.17206949 8.95922384 2.21972656 13.43994141 C2.23962882 14.95861185 2.26676104 16.47720788 2.30175781 17.99560547 C2.52096803 27.76335484 1.92703468 35.84872528 -2 45 C-2.33 45 -2.66 45 -3 45 C-4.04518445 35.31337984 -4.10371911 25.72654773 -4 16 C-4.66 15.67 -5.32 15.34 -6 15 C-5.18872921 12.87453041 -4.37594602 10.74963805 -3.5625 8.625 C-3.11003906 7.44164062 -2.65757813 6.25828125 -2.19140625 5.0390625 C-1 2 -1 2 0 0 Z " fill="#51A7FC" transform="translate(46,32)"/>
<path d="M0 0 C2.73886155 0.02559684 4.40257532 0.30085844 7.0625 1.1875 C7.3925 1.8475 7.7225 2.5075 8.0625 3.1875 C9.38717746 3.8712045 10.72113633 4.53714186 12.0625 5.1875 C12.7225 5.8475 13.3825 6.5075 14.0625 7.1875 C12.0825 8.1775 12.0825 8.1775 10.0625 9.1875 C10.3925 9.5175 10.7225 9.8475 11.0625 10.1875 C11.25 12.625 11.25 12.625 11.0625 15.1875 C9.0625 17.1875 9.0625 17.1875 6.5625 17.4375 C4.0625 17.1875 4.0625 17.1875 2.0625 15.1875 C1.875 12.625 1.875 12.625 2.0625 10.1875 C2.3925 9.8575 2.7225 9.5275 3.0625 9.1875 C0.4225 8.8575 -2.2175 8.5275 -4.9375 8.1875 C-5.5625 5.3125 -5.5625 5.3125 -5.9375 2.1875 C-3.9375 0.1875 -3.9375 0.1875 0 0 Z " fill="#FC8B0E" transform="translate(36.9375,86.8125)"/>
<path d="M0 0 C0.66 0.33 1.32 0.66 2 1 C0.17778624 7.61242722 -2.05223604 13.80520671 -5 20 C-5.66 20 -6.32 20 -7 20 C-7.33 20.99 -7.66 21.98 -8 23 C-10 22 -10 22 -11 20 C-11.33 20 -11.66 20 -12 20 C-12.40214229 13.83381819 -10.96818336 8.82254243 -9 3 C-8.67 4.32 -8.34 5.64 -8 7 C-7.34 7 -6.68 7 -6 7 C-5.34 5.02 -4.68 3.04 -4 1 C-3.34 1.66 -2.68 2.32 -2 3 C-1.34 2.01 -0.68 1.02 0 0 Z " fill="#FCA01D" transform="translate(118,31)"/>
<path d="M0 0 C0.66 0 1.32 0 2 0 C2.5534764 2.07553648 3 3.84365964 3 6 C3.16231603 8.20865737 3.32978532 10.41693731 3.5 12.625 C3.67021399 15.08309027 3.8371794 17.54140894 4 20 C4.05671875 20.77601562 4.1134375 21.55203125 4.171875 22.3515625 C4.40141973 27.92949956 2.79204635 32.79453202 1 38 C0.67 38 0.34 38 0 38 C-0.19770851 33.79208145 -0.38136206 29.58366185 -0.5625 25.375 C-0.61857422 24.18519531 -0.67464844 22.99539062 -0.73242188 21.76953125 C-0.78076172 20.61582031 -0.82910156 19.46210937 -0.87890625 18.2734375 C-0.9260376 17.21560059 -0.97316895 16.15776367 -1.02172852 15.06787109 C-0.99956774 11.93896832 -0.59691716 9.06698853 0 6 C-0.66 6 -1.32 6 -2 6 C-1.34 4.02 -0.68 2.04 0 0 Z " fill="#5EC9FB" transform="translate(48,26)"/>
<path d="M0 0 C5.28 0 10.56 0 16 0 C16 0.66 16 1.32 16 2 C17.299375 1.979375 18.59875 1.95875 19.9375 1.9375 C21.29165633 1.91600546 22.64756083 1.92851801 24 2 C24.33 2.33 24.66 2.66 25 3 C27.32817964 3.36760731 29.6618385 3.70241581 32 4 C32 5.32 32 6.64 32 8 C30.00045254 8.04254356 27.99958364 8.04080783 26 8 C25.67 7.67 25.34 7.34 25 7 C22.14471393 6.599617 19.30263513 6.2481773 16.4375 5.9375 C15.63119141 5.84662109 14.82488281 5.75574219 13.99414062 5.66210938 C11.99652623 5.43752551 9.9983144 5.21826764 8 5 C8 3.68 8 2.36 8 1 C5.36 1 2.72 1 0 1 C0 0.67 0 0.34 0 0 Z " fill="#FCB023" transform="translate(56,87)"/>
<path d="M0 0 C2.24658203 -0.34057617 2.24658203 -0.34057617 5.0078125 -0.29296875 C5.99394531 -0.28330078 6.98007813 -0.27363281 7.99609375 -0.26367188 C9.02863281 -0.23853516 10.06117188 -0.21339844 11.125 -0.1875 C12.68541016 -0.16719727 12.68541016 -0.16719727 14.27734375 -0.14648438 C16.85207627 -0.11105228 19.4257833 -0.06165221 22 0 C22.1875 2.875 22.1875 2.875 22 6 C21.01 6.66 20.02 7.32 19 8 C18.34 7.67 17.68 7.34 17 7 C17 6.34 17 5.68 17 5 C14.72926348 4.83201949 12.45840707 4.66565887 10.1875 4.5 C8.92292969 4.4071875 7.65835938 4.314375 6.35546875 4.21875 C4.24021483 4.08085219 2.11974408 4 0 4 C-0.66 3.67 -1.32 3.34 -2 3 C-1.34 2.01 -0.68 1.02 0 0 Z " fill="#FCA923" transform="translate(122,0)"/>
<path d="M0 0 C0.33 0 0.66 0 1 0 C0.99476318 0.60996826 0.98952637 1.21993652 0.98413086 1.84838867 C0.96326665 4.62808185 0.95030987 7.40775851 0.9375 10.1875 C0.92912109 11.14720703 0.92074219 12.10691406 0.91210938 13.09570312 C0.90727539 14.49272461 0.90727539 14.49272461 0.90234375 15.91796875 C0.89710693 16.77156982 0.89187012 17.6251709 0.88647461 18.50463867 C1.00417213 21.09170604 1.49017933 23.46564355 2 26 C1.66015625 28.67578125 1.66015625 28.67578125 1.0625 31.3125 C0.86785156 32.19550781 0.67320313 33.07851562 0.47265625 33.98828125 C0.31667969 34.65214844 0.16070312 35.31601563 0 36 C-0.33 36 -0.66 36 -1 36 C-2.12765957 28.4822695 -2.12765957 28.4822695 -1.4375 25.875 C-0.76163276 22.97842611 -2.04157633 20.76251528 -3 18 C-3 16.33333333 -3 14.66666667 -3 13 C-3.5878125 12.071875 -3.5878125 12.071875 -4.1875 11.125 C-5 9 -5 9 -3.625 5.25 C-3.08875 4.1775 -2.5525 3.105 -2 2 C-1.34 2 -0.68 2 0 2 C0 1.34 0 0.68 0 0 Z " fill="#4790FB" transform="translate(42,46)"/>
<path d="M0 0 C1 2 1 2 0.00390625 5.4765625 C-0.46900047 6.86197936 -0.94981644 8.24471547 -1.4375 9.625 C-1.68048828 10.33140625 -1.92347656 11.0378125 -2.17382812 11.765625 C-2.77587205 13.51273287 -3.38708017 15.25667786 -4 17 C-7 17 -7 17 -10 16 C-10 14.68 -10 13.36 -10 12 C-10.66 12 -11.32 12 -12 12 C-11.67 9.69 -11.34 7.38 -11 5 C-10.01 6.485 -10.01 6.485 -9 8 C-8.566875 7.505 -8.13375 7.01 -7.6875 6.5 C-6 5 -6 5 -3 5 C-2.690625 4.360625 -2.38125 3.72125 -2.0625 3.0625 C-1 1 -1 1 0 0 Z " fill="#FCC739" transform="translate(104,75)"/>
<path d="M0 0 C1.60556237 4.81668711 -0.88041036 8.57712296 -3 13 C-5.08302078 16.2253225 -6.12454532 17.65389001 -9.6875 19.0625 C-10.8321875 19.5265625 -10.8321875 19.5265625 -12 20 C-12.33 21.32 -12.66 22.64 -13 24 C-13.66 21.03 -14.32 18.06 -15 15 C-14.01 14.67 -13.02 14.34 -12 14 C-11.525625 13.319375 -11.05125 12.63875 -10.5625 11.9375 C-10.046875 11.298125 -9.53125 10.65875 -9 10 C-7.68 10 -6.36 10 -5 10 C-5 9.01 -5 8.02 -5 7 C-4.34 7 -3.68 7 -3 7 C-2.87625 6.401875 -2.7525 5.80375 -2.625 5.1875 C-2 3 -2 3 0 0 Z " fill="#FCBA29" transform="translate(108,62)"/>
<path d="M0 0 C0.66 0 1.32 0 2 0 C2 0.66 2 1.32 2 2 C2.66 2 3.32 2 4 2 C4.33 1.34 4.66 0.68 5 0 C6 2 6 2 5.00390625 5.0390625 C4.52824219 6.22242188 4.05257812 7.40578125 3.5625 8.625 C2.85287109 10.40777344 2.85287109 10.40777344 2.12890625 12.2265625 C1.75636719 13.14179687 1.38382813 14.05703125 1 15 C-2.06368776 11.18969926 -3.3944535 7.58727572 -5 3 C-3.35 2.67 -1.7 2.34 0 2 C0 1.34 0 0.68 0 0 Z " fill="#F2F6F9" transform="translate(34,48)"/>
<path d="M0 0 C0.66 0.66 1.32 1.32 2 2 C1.43181818 7.56818182 1.43181818 7.56818182 0 9 C-2.33944736 8.71269945 -4.6739143 8.38063221 -7 8 C-7.6875 5.6875 -7.6875 5.6875 -8 3 C-5.93469402 -0.32743741 -3.72952011 -0.4781436 0 0 Z " fill="#3B4689" transform="translate(86,95)"/>
<path d="M0 0 C2.5 0.25 2.5 0.25 4.5 2.25 C4.75 4.75 4.75 4.75 4.5 7.25 C2.5 9.25 2.5 9.25 0 9.5 C-2.5 9.25 -2.5 9.25 -4.5 7.25 C-4.75 4.75 -4.75 4.75 -4.5 2.25 C-2.5 0.25 -2.5 0.25 0 0 Z " fill="#6F7AB1" transform="translate(43.5,94.75)"/>
<path d="M0 0 C2.30413324 3.45619986 2.12127326 4.0145661 1.5625 7.9375 C0.8569676 14.07399112 1.30585195 19.88081796 2 26 C0.68 26 -0.64 26 -2 26 C-2.05830787 22.60423938 -2.09369946 19.2086085 -2.125 15.8125 C-2.14175781 14.85279297 -2.15851562 13.89308594 -2.17578125 12.90429688 C-2.18222656 11.97294922 -2.18867187 11.04160156 -2.1953125 10.08203125 C-2.20578613 9.22843018 -2.21625977 8.3748291 -2.22705078 7.49536133 C-1.97204194 4.69273185 -1.15541422 2.55270581 0 0 Z " fill="#3467FC" transform="translate(36,58)"/>
<path d="M0 0 C5.17804433 0.25258753 7.7978086 2.08244491 11.58203125 5.33203125 C13.17821787 7.2096392 13.59805152 8.59352923 14 11 C13.01 11.33 12.02 11.66 11 12 C10.01 10.02 9.02 8.04 8 6 C6.35 6 4.7 6 3 6 C3 5.67 3 5.34 3 5 C1.35 4.67 -0.3 4.34 -2 4 C-1.34 2.68 -0.68 1.36 0 0 Z " fill="#2F48F6" transform="translate(2,11)"/>
<path d="M0 0 C0.66 0.33 1.32 0.66 2 1 C2.05850924 4.68743234 2.09376673 8.3747437 2.125 12.0625 C2.14175781 13.10083984 2.15851562 14.13917969 2.17578125 15.20898438 C2.21183286 20.88711284 1.92971166 25.64391054 0 31 C-0.33 31 -0.66 31 -1 31 C-1.02469575 26.90658501 -1.04285793 22.81319879 -1.05493164 18.71972656 C-1.0599643 17.32681523 -1.06679098 15.9339092 -1.07543945 14.54101562 C-1.08755152 12.54038754 -1.09270412 10.53972112 -1.09765625 8.5390625 C-1.10289307 7.33459473 -1.10812988 6.13012695 -1.11352539 4.88916016 C-1 2 -1 2 0 0 Z " fill="#56B5FC" transform="translate(46,41)"/>
<path d="M0 0 C2.45925493 2.45925493 3.34371127 4.79646927 4.6875 8 C5.14511719 9.0725 5.60273437 10.145 6.07421875 11.25 C6.37972656 12.1575 6.68523438 13.065 7 14 C6.67 14.66 6.34 15.32 6 16 C4.02 15.34 2.04 14.68 0 14 C0 9.38 0 4.76 0 0 Z " fill="#E9EEFB" transform="translate(0,18)"/>
<path d="M0 0 C0.33 0 0.66 0 1 0 C1.22262303 6.7281627 0.95021536 12.53991163 -1 19 C-1.66 19 -2.32 19 -3 19 C-3 18.34 -3 17.68 -3 17 C-3.66 17 -4.32 17 -5 17 C-4.80664062 16.35933594 -4.61328125 15.71867187 -4.4140625 15.05859375 C-2.9059252 10.04889015 -1.42282214 5.03460143 0 0 Z " fill="#F1F5F3" transform="translate(54,45)"/>
<path d="M0 0 C18.15710493 -0.20050791 18.15710493 -0.20050791 25 1 C25.33 1.66 25.66 2.32 26 3 C20.06 3 14.12 3 8 3 C8 2.34 8 1.68 8 1 C5.36 1 2.72 1 0 1 C0 0.67 0 0.34 0 0 Z " fill="#FDA21D" transform="translate(56,92)"/>
<path d="M0 0 C1.19799449 4.14659373 0.8896192 7.99369047 0.5625 12.25 C0.48418945 13.36761719 0.48418945 13.36761719 0.40429688 14.5078125 C0.2751783 16.33894861 0.13834886 18.16953813 0 20 C-0.99 19.67 -1.98 19.34 -3 19 C-3.39325819 12.02330843 -2.63096039 6.48343811 0 0 Z " fill="#2D52FD" transform="translate(34,64)"/>
<path d="M0 0 C0.70125 0.06703125 1.4025 0.1340625 2.125 0.203125 C4 0.75 4 0.75 6 3.75 C5 4.75 5 4.75 1.40234375 4.84765625 C-0.08596867 4.8409822 -1.57426432 4.82902183 -3.0625 4.8125 C-3.82111328 4.80798828 -4.57972656 4.80347656 -5.36132812 4.79882812 C-7.24091871 4.7870068 -9.12046899 4.76907078 -11 4.75 C-11 4.42 -11 4.09 -11 3.75 C-9.02 3.75 -7.04 3.75 -5 3.75 C-5.33 2.76 -5.66 1.77 -6 0.75 C-3.64710301 -0.4264485 -2.58181049 -0.28475851 0 0 Z " fill="#FA840A" transform="translate(45,90.25)"/>
<path d="M0 0 C0.33 0 0.66 0 1 0 C1.70184235 4.05508912 2.10924726 7.05600974 1 11 C0.96111651 13.33300933 0.9551365 15.66709801 1 18 C0.01 18.33 -0.98 18.66 -2 19 C-4.07068885 12.78793344 -1.93713978 6.06970465 0 0 Z " fill="#4185FB" transform="translate(40,65)"/>
<path d="M0 0 C9.41002278 -0.18451025 9.41002278 -0.18451025 14 1 C14 1.66 14 2.32 14 3 C14.66 3.33 15.32 3.66 16 4 C12.37 4 8.74 4 5 4 C5 3.34 5 2.68 5 2 C3.35 1.67 1.7 1.34 0 1 C0 0.67 0 0.34 0 0 Z " fill="#FEA018" transform="translate(125,4)"/>
<path d="M0 0 C1.4540625 0.0309375 1.4540625 0.0309375 2.9375 0.0625 C3.125 2.9375 3.125 2.9375 2.9375 6.0625 C1.9475 6.7225 0.9575 7.3825 -0.0625 8.0625 C-1.0525 7.0725 -2.0425 6.0825 -3.0625 5.0625 C-2.7325 4.0725 -2.4025 3.0825 -2.0625 2.0625 C-2.7225 1.7325 -3.3825 1.4025 -4.0625 1.0625 C-3.0625 0.0625 -3.0625 0.0625 0 0 Z " fill="#FCC543" transform="translate(141.0625,-0.0625)"/>
<path d="M0 0 C-0.33 1.32 -0.66 2.64 -1 4 C-1.99 3.34 -2.98 2.68 -4 2 C-4.33 2.66 -4.66 3.32 -5 4 C-5.66 3.67 -6.32 3.34 -7 3 C-7.99 3.99 -8.98 4.98 -10 6 C-10.1875 3.625 -10.1875 3.625 -10 1 C-6.1496895 -1.56687367 -4.41430237 -0.83288724 0 0 Z " fill="#74E2FA" transform="translate(61,22)"/>
<path d="M0 0 C3.875 1.875 3.875 1.875 5 3 C5.14115161 5.67058851 5.04247107 8.32432238 5 11 C4.67 9.68 4.34 8.36 4 7 C3.01 7.33 2.02 7.66 1 8 C-0.42944945 5.64561267 -1.08661261 4.51967567 -0.625 1.75 C-0.41875 1.1725 -0.2125 0.595 0 0 Z " fill="#F1872C" transform="translate(61,25)"/>
<path d="M0 0 C0.6875 1.8125 0.6875 1.8125 1 4 C-0.4375 5.75 -0.4375 5.75 -2 7 C-3.32 6.34 -4.64 5.68 -6 5 C-6 3.68 -6 2.36 -6 1 C-4.7934375 1.0309375 -4.7934375 1.0309375 -3.5625 1.0625 C-1.06645115 1.29633621 -1.06645115 1.29633621 0 0 Z " fill="#7985B9" transform="translate(87,97)"/>
<path d="M0 0 C0.66 1.32 1.32 2.64 2 4 C0.68 4.33 -0.64 4.66 -2 5 C-2 6.65 -2 8.3 -2 10 C-3.98 10.33 -5.96 10.66 -8 11 C-8 8.69 -8 6.38 -8 4 C-7.34 4 -6.68 4 -6 4 C-5.67 5.32 -5.34 6.64 -5 8 C-4.34 6.68 -3.68 5.36 -3 4 C-2.34 4 -1.68 4 -1 4 C-0.67 2.68 -0.34 1.36 0 0 Z " fill="#FA7F18" transform="translate(73,52)"/>
<path d="M0 0 C-1 3 -1 3 -3 4 C-3.33 4.99 -3.66 5.98 -4 7 C-6.0625 7.6875 -6.0625 7.6875 -8 8 C-8 5.69 -8 3.38 -8 1 C-5.07175348 0.02391783 -3.04386724 -0.08226668 0 0 Z " fill="#FE7E03" transform="translate(127,7)"/>
<path d="M0 0 C0.78375 0.04125 1.5675 0.0825 2.375 0.125 C2.705 1.115 3.035 2.105 3.375 3.125 C1.725 3.125 0.075 3.125 -1.625 3.125 C-1.625 4.445 -1.625 5.765 -1.625 7.125 C-0.635 7.785 0.355 8.445 1.375 9.125 C-3.5 8.25 -3.5 8.25 -4.625 7.125 C-4.8125 4.6875 -4.8125 4.6875 -4.625 2.125 C-2.625 0.125 -2.625 0.125 0 0 Z " fill="#323A7F" transform="translate(43.625,94.875)"/>
<path d="M0 0 C2.31 0 4.62 0 7 0 C6.814375 1.11375 6.62875 2.2275 6.4375 3.375 C5.68319343 6.82568861 5.68319343 6.82568861 7 9 C6.01 9 5.02 9 4 9 C2.68 6.03 1.36 3.06 0 0 Z " fill="#ECEAE6" transform="translate(34,95)"/>
<path d="M0 0 C0.66 0.66 1.32 1.32 2 2 C5.08347826 2.16681109 5.08347826 2.16681109 8 2 C8.33 2.99 8.66 3.98 9 5 C6.36 5.33 3.72 5.66 1 6 C0.67 4.02 0.34 2.04 0 0 Z " fill="#F98A1D" transform="translate(31,89)"/>
<path d="M0 0 C2.50356732 3.75535098 1.9608592 4.86889414 1.125 9.1875 C0.92132813 10.27417969 0.71765625 11.36085938 0.5078125 12.48046875 C0.34023438 13.31191406 0.17265625 14.14335938 0 15 C-1.93166093 11.43562567 -2.3338601 9.08978621 -2 5 C-1 2.125 -1 2.125 0 0 Z " fill="#3D69F4" transform="translate(36,58)"/>
<path d="M0 0 C1.32 0 2.64 0 4 0 C4.66 0.66 5.32 1.32 6 2 C4.02 4.97 4.02 4.97 2 8 C0.4375 6.25 0.4375 6.25 -1 4 C-0.6875 1.75 -0.6875 1.75 0 0 Z " fill="#FCF5EA" transform="translate(74,40)"/>
<path d="M0 0 C1.5625 1.625 1.5625 1.625 3 4 C2.6875 7.25 2.6875 7.25 2 10 C1.34 10 0.68 10 0 10 C0 9.34 0 8.68 0 8 C-0.66 8 -1.32 8 -2 8 C-1.34 5.36 -0.68 2.72 0 0 Z " fill="#EBFAFE" transform="translate(51,54)"/>
<path d="M0 0 C0.33 0 0.66 0 1 0 C1 2.31 1 4.62 1 7 C0.01 7.495 0.01 7.495 -1 8 C-1.66 7.67 -2.32 7.34 -3 7 C-3 7.99 -3 8.98 -3 10 C-3.66 10 -4.32 10 -5 10 C-3.66654496 6.40992874 -2.1056769 3.20429093 0 0 Z " fill="#FCF1E2" transform="translate(88,46)"/>
<path d="M0 0 C0.66 0.66 1.32 1.32 2 2 C-5.625 3.25 -5.625 3.25 -9 1 C-5.98675805 -0.50662097 -3.31713623 -0.17770373 0 0 Z " fill="#F87B17" transform="translate(97,25)"/>
<path d="M0 0 C0.99 0 1.98 0 3 0 C3.12375 0.639375 3.2475 1.27875 3.375 1.9375 C3.684375 2.9584375 3.684375 2.9584375 4 4 C4.66 4.33 5.32 4.66 6 5 C3.36 5 0.72 5 -2 5 C-1.34 3.35 -0.68 1.7 0 0 Z " fill="#F3F6F4" transform="translate(75,99)"/>
<path d="M0 0 C0.66 0 1.32 0 2 0 C2.3125 2.1875 2.3125 2.1875 2 5 C-0.5 7.8125 -0.5 7.8125 -3 10 C-2.01 6.7 -1.02 3.4 0 0 Z " fill="#FB9422" transform="translate(113,24)"/>
<path d="M0 0 C0.99 0.33 1.98 0.66 3 1 C2.34 1.66 1.68 2.32 1 3 C1.66 3.66 2.32 4.32 3 5 C2.01 6.485 2.01 6.485 1 8 C-0.32 6.35 -1.64 4.7 -3 3 C-2.01 2.01 -1.02 1.02 0 0 Z " fill="#F2F5F6" transform="translate(12,9)"/>
<path d="M0 0 C0.99 0.66 1.98 1.32 3 2 C2.34 4.64 1.68 7.28 1 10 C0.01 8.68 -0.98 7.36 -2 6 C-1.34 5.67 -0.68 5.34 0 5 C0 3.35 0 1.7 0 0 Z " fill="#FBF7ED" transform="translate(91,76)"/>
<path d="M0 0 C0.33 0 0.66 0 1 0 C1 1.65 1 3.3 1 5 C0.34 5 -0.32 5 -1 5 C-1 6.65 -1 8.3 -1 10 C-1.66 9.67 -2.32 9.34 -3 9 C-2.25 2.25 -2.25 2.25 0 0 Z " fill="#FDA219" transform="translate(105,52)"/>
<path d="M0 0 C0.99 0 1.98 0 3 0 C3.33 2.31 3.66 4.62 4 7 C2.0625 6.25 2.0625 6.25 0 5 C-0.8125 2.9375 -0.8125 2.9375 -1 1 C-0.67 0.67 -0.34 0.34 0 0 Z " fill="#2642F1" transform="translate(28,76)"/>
<path d="M0 0 C2.31 0 4.62 0 7 0 C7.33 1.32 7.66 2.64 8 4 C5.36 3.34 2.72 2.68 0 2 C0 1.34 0 0.68 0 0 Z " fill="#FDBE27" transform="translate(131,0)"/>
<path d="M0 0 C2.31 0 4.62 0 7 0 C7.33 1.32 7.66 2.64 8 4 C7.01 4 6.02 4 5 4 C5 3.34 5 2.68 5 2 C3.35 1.67 1.7 1.34 0 1 C0 0.67 0 0.34 0 0 Z " fill="#FE9413" transform="translate(125,4)"/>
<path d="M0 0 C3.63 0 7.26 0 11 0 C5.48 2.76 5.48 2.76 3 3 C2.01 2.01 1.02 1.02 0 0 Z " fill="#FCC438" transform="translate(80,87)"/>
<path d="M0 0 C0.99 1.32 1.98 2.64 3 4 C3.66 3.67 4.32 3.34 5 3 C5 4.32 5 5.64 5 7 C3.68 6.67 2.36 6.34 1 6 C0.67 4.02 0.34 2.04 0 0 Z " fill="#FA7C12" transform="translate(90,70)"/>
<path d="M0 0 C1 2 1 2 1 6 C1.66 6.33 2.32 6.66 3 7 C3 7.66 3 8.32 3 9 C1.68 9 0.36 9 -1 9 C-1.09765625 2.84765625 -1.09765625 2.84765625 -1 1 C-0.67 0.67 -0.34 0.34 0 0 Z " fill="#FCAE33" transform="translate(102,55)"/>
<path d="M0 0 C-0.75 5.75 -0.75 5.75 -3 8 C-3.33 5.69 -3.66 3.38 -4 1 C-2 0 -2 0 0 0 Z " fill="#F1C29D" transform="translate(37,55)"/>
<path d="M0 0 C3 3.75 3 3.75 3 6 C2.01 6 1.02 6 0 6 C-0.66 5.34 -1.32 4.68 -2 4 C-2 3.01 -2 2.02 -2 1 C-1.34 0.67 -0.68 0.34 0 0 Z " fill="#2D48FA" transform="translate(29,52)"/>
<path d="M0 0 C0.66 0.33 1.32 0.66 2 1 C1.34 3.31 0.68 5.62 0 8 C-0.66 8 -1.32 8 -2 8 C-1.47731534 5.23723823 -0.89130413 2.6739124 0 0 Z " fill="#F9AA27" transform="translate(114,42)"/>
<path d="M0 0 C0.99 0.33 1.98 0.66 3 1 C3 3.31 3 5.62 3 8 C1.29159719 6.36587557 0.06546953 5.13093906 -1 3 C-0.67 2.01 -0.34 1.02 0 0 Z " fill="#FDF3E8" transform="translate(123,22)"/>
</svg>
